<svg fill="#000000" xmlns="http://www.w3.org/2000/svg"  viewBox="0 0 32 32" width="512px" height="512px"><path d="M 8.9375 5 C 6.773438 5 5 6.773438 5 8.9375 L 5 23.0625 C 5 25.226563 6.773438 27 8.9375 27 L 23.0625 27 C 25.226563 27 27 25.226563 27 23.0625 L 27 8.9375 C 27 6.773438 25.226563 5 23.0625 5 Z M 8.9375 7 L 23.0625 7 C 24.144531 7 25 7.855469 25 8.9375 L 25 23.0625 C 25 24.144531 24.144531 25 23.0625 25 L 8.9375 25 C 7.855469 25 7 24.144531 7 23.0625 L 7 8.9375 C 7 7.855469 7.855469 7 8.9375 7 Z M 12.1875 9.03125 C 12.078125 9.03125 12 9.113281 12 9.21875 L 12 9.90625 C 12 10.003906 12.058594 10.078125 12.15625 10.09375 C 13.03125 10.214844 15 10.59375 15 11.03125 L 15 21 C 15 21.996094 12.207031 21.9375 12.1875 21.9375 C 12.078125 21.941406 12 22.019531 12 22.125 L 12 22.8125 C 12 22.917969 12.078125 23.03125 12.1875 23.03125 L 19.78125 23.03125 C 19.890625 23.03125 20 22.917969 20 22.8125 L 20 22.125 C 20 22.019531 19.921875 21.941406 19.8125 21.9375 C 19.792969 21.9375 17 21.960938 17 21 L 17 11.03125 C 17 10.507813 19.128906 10.171875 19.8125 10.09375 C 19.914063 10.082031 20 10.003906 20 9.90625 L 20 9.21875 C 20 9.113281 19.890625 9.03125 19.78125 9.03125 Z"/></svg>