<?xml version="1.0" standalone="no"?>
<!DOCTYPE svg PUBLIC "-//W3C//DTD SVG 20010904//EN"
 "http://www.w3.org/TR/2001/REC-SVG-20010904/DTD/svg10.dtd">
<svg version="1.0" xmlns="http://www.w3.org/2000/svg"
 width="96.000000pt" height="96.000000pt" viewBox="0 0 96.000000 96.000000"
 preserveAspectRatio="xMidYMid meet">

<g transform="translate(0.000000,96.000000) scale(0.100000,-0.100000)"
fill="#000000" stroke="none">
<path d="M386 872 c-2 -4 -10 -36 -16 -72 -6 -36 -16 -86 -22 -112 l-10 -47
-106 -3 c-107 -3 -107 -3 -107 -28 0 -25 1 -25 103 -28 92 -2 103 -5 98 -20
-2 -9 -10 -44 -16 -77 -21 -116 -7 -104 -123 -107 -101 -3 -102 -3 -102 -28 0
-25 1 -25 98 -28 87 -2 98 -5 93 -20 -14 -49 -36 -197 -32 -209 4 -8 16 -13
28 -11 20 3 25 13 36 68 7 36 17 89 23 118 l10 52 110 0 c100 0 110 -2 105
-17 -14 -50 -36 -197 -32 -210 4 -8 16 -13 28 -11 20 3 25 13 36 68 7 36 17
88 23 117 l10 52 107 3 c107 3 107 3 107 28 0 25 -1 25 -103 28 -92 2 -103 5
-98 20 2 9 10 44 16 77 21 116 7 104 123 107 101 3 102 3 102 28 0 25 -1 25
-98 28 -94 3 -97 3 -92 25 23 111 36 191 31 203 -4 9 -15 14 -28 12 -20 -3
-25 -13 -36 -68 -7 -36 -17 -89 -23 -117 l-10 -53 -110 0 c-108 0 -109 0 -105
23 24 109 37 191 32 203 -6 15 -41 19 -50 6z m220 -309 c-2 -10 -10 -45 -16
-78 -21 -118 -6 -105 -131 -105 -100 0 -110 2 -105 18 2 9 10 44 16 77 21 118
6 105 131 105 100 0 110 -2 105 -17z"/>
</g>
</svg>
