<svg xmlns="http://www.w3.org/2000/svg" width="32" height="32" fill="#000000" style=""><rect id="backgroundrect" width="100%" height="100%" x="0" y="0" fill="none" stroke="none"/>

 <g style="" class="currentLayer">
  <title>Layer 1</title>
  <path stroke="#000000" id="svg_1" d="m6.85431,1.81802c-2.76796,0 -5.03629,2.26833 -5.03629,5.03629l0,18.06668c0,2.76796 2.26833,5.03629 5.03629,5.03629l18.06668,0c2.76796,0 5.03629,-2.26833 5.03629,-5.03629l0,-18.06668c0,-2.76796 -2.26833,-5.03629 -5.03629,-5.03629l-18.06668,0zm0,2.55811l18.06668,0c1.38398,0 2.47817,1.0942 2.47817,2.47817l0,18.06668c0,1.38398 -1.0942,2.47817 -2.47817,2.47817l-18.06668,0c-1.38398,0 -2.47817,-1.0942 -2.47817,-2.47817l0,-18.06668c0,-1.38398 1.0942,-2.47817 2.47817,-2.47817zm4.15694,2.59808c-0.13989,0 -0.23982,0.10492 -0.23982,0.23982l0,0.87935c0,0.12491 0.07494,0.21984 0.19985,0.23982c1.11918,0.15488 3.63732,0.63953 3.63732,1.19912l0,12.7506c0,1.27406 -3.57237,1.19912 -3.59735,1.19912c-0.13989,0.005 -0.23982,0.10492 -0.23982,0.23982l0,0.87935c0,0.1349 0.09993,0.27979 0.23982,0.27979l9.71284,0c0.1399,0 0.27979,-0.14489 0.27979,-0.27979l0,-0.87935c0,-0.1349 -0.09992,-0.23482 -0.23982,-0.23982c-0.02498,0 -3.59735,0.02998 -3.59735,-1.19912l0,-12.7506c0,-0.66951 2.723,-1.09918 3.59735,-1.19912c0.1299,-0.01499 0.23982,-0.11491 0.23982,-0.23982l0,-0.87935c0,-0.1349 -0.13989,-0.23982 -0.27979,-0.23982l-9.71284,0z" class="selected" stroke-opacity="1" fill="#000000" fill-opacity="1" stroke-width="0.2"/>
 </g>
</svg>